P3
20 20
255
200 5 50
200 5 50
200 5 50
200 5 50
200 5 50
200 5 50
200 5 50
200 5 50
200 5 50
200 5 50
200 5 50
200 5 50
200 5 50
200 5 50
200 5 50
200 5 50
200 5 50
200 5 50
200 5 50
200 5 50
200 5 50
0 250 5
0 250 5
0 250 5
0 250 5
0 250 5
0 250 5
0 250 5
0 250 5
0 250 5
0 250 5
0 250 5
0 250 5
0 250 5
0 250 5
0 250 5
0 250 5
0 250 5
200 5 50
200 5 50
200 5 50
0 250 5
0 250 5
200 5 50
0 250 5
0 250 5
0 250 5
0 250 5
0 250 5
0 250 5
0 250 5
0 250 5
0 250 5
0 250 5
0 250 5
200 5 50
200 5 50
0 250 5
200 5 50
200 5 50
200 5 50
0 250 5
0 250 5
0 250 5
0 250 5
0 250 5
0 250 5
0 250 5
0 250 5
0 250 5
0 250 5
0 250 5
0 250 5
200 5 50
0 250 5
200 5 50
200 5 50
0 250 5
200 5 50
200 5 50
200 5 50
0 250 5
0 250 5
200 5 50
200 5 50
200 5 50
0 250 5
0 250 5
0 250 5
0 250 5
200 5 50
200 5 50
200 5 50
200 5 50
0 250 5
200 5 50
200 5 50
0 250 5
200 5 50
200 5 50
200 5 50
0 250 5
0 250 5
200 5 50
200 5 50
200 5 50
0 250 5
200 5 50
200 5 50
200 5 50
200 5 50
200 5 50
200 5 50
200 5 50
0 250 5
200 5 50
200 5 50
0 250 5
200 5 50
200 5 50
200 5 50
0 250 5
0 250 5
200 5 50
200 5 50
200 5 50
0 250 5
200 5 50
200 5 50
200 5 50
200 5 50
200 5 50
200 5 50
200 5 50
0 250 5
200 5 50
200 5 50
0 250 5
200 5 50
200 5 50
200 5 50
0 250 5
0 250 5
200 5 50
200 5 50
200 5 50
0 250 5
200 5 50
200 5 50
200 5 50
200 5 50
200 5 50
200 5 50
200 5 50
0 250 5
200 5 50
200 5 50
0 250 5
200 5 50
200 5 50
200 5 50
0 250 5
0 250 5
200 5 50
200 5 50
200 5 50
0 250 5
200 5 50
200 5 50
200 5 50
200 5 50
200 5 50
200 5 50
200 5 50
0 250 5
200 5 50
200 5 50
0 250 5
200 5 50
200 5 50
200 5 50
0 250 5
0 250 5
200 5 50
200 5 50
200 5 50
0 250 5
200 5 50
200 5 50
200 5 50
200 5 50
200 5 50
200 5 50
200 5 50
0 250 5
200 5 50
200 5 50
0 250 5
200 5 50
200 5 50
200 5 50
0 250 5
0 250 5
0 250 5
0 250 5
0 250 5
0 250 5
0 250 5
0 250 5
0 250 5
0 250 5
0 250 5
0 250 5
200 5 50
0 250 5
200 5 50
200 5 50
0 250 5
200 5 50
200 5 50
200 5 50
0 250 5
0 250 5
0 250 5
0 250 5
0 250 5
0 250 5
0 250 5
0 250 5
0 250 5
0 250 5
0 250 5
0 250 5
0 250 5
0 250 5
200 5 50
200 5 50
0 250 5
200 5 50
200 5 50
200 5 50
0 250 5
0 250 5
0 250 5
0 250 5
0 250 5
0 250 5
0 250 5
0 250 5
0 250 5
0 250 5
0 250 5
0 250 5
0 250 5
0 250 5
0 250 5
0 250 5
0 250 5
200 5 50
200 5 50
200 5 50
120 5 125
0 250 5
200 5 50
0 250 5
200 5 50
0 250 5
0 250 5
200 5 50
200 5 50
0 250 5
0 250 5
200 5 50
200 5 50
0 250 5
200 5 50
200 5 50
200 5 50
200 5 50
200 5 50
200 5 50
0 250 5
0 250 5
0 250 5
0 250 5
0 250 5
0 250 5
0 250 5
0 250 5
0 250 5
0 250 5
0 250 5
0 250 5
0 250 5
0 250 5
200 5 50
200 5 50
200 5 50
200 5 50
200 5 50
200 5 50
0 250 5
0 250 5
0 250 5
0 250 5
0 250 5
0 250 5
0 250 5
0 250 5
0 250 5
0 250 5
0 250 5
200 5 50
200 5 50
0 250 5
200 5 50
200 5 50
200 5 50
200 5 50
200 5 50
200 5 50
0 250 5
0 250 5
200 5 50
0 250 5
200 5 50
200 5 50
0 250 5
200 5 50
200 5 50
200 5 50
200 5 50
200 5 50
200 5 50
0 250 5
200 5 50
200 5 50
200 5 50
200 5 50
200 5 50
200 5 50
0 250 5
0 250 5
200 5 50
0 250 5
200 5 50
200 5 50
0 250 5
200 5 50
200 5 50
200 5 50
200 5 50
200 5 50
200 5 50
0 250 5
200 5 50
200 5 50
200 5 50
200 5 50
200 5 50
200 5 50
0 250 5
0 250 5
0 250 5
0 250 5
0 250 5
0 250 5
0 250 5
0 250 5
0 250 5
0 250 5
0 250 5
0 250 5
0 250 5
0 250 5
200 5 50
200 5 50
200 5 50
200 5 50
200 5 50
200 5 50
0 250 5
200 5 50
200 5 50
200 5 50
200 5 50
200 5 50
200 5 50
200 5 50
200 5 50
200 5 50
200 5 50
0 250 5
0 250 5
0 250 5
0 250 5
0 250 5
0 250 5
0 250 5
100 5 200
